<?xml version="1.0" encoding="UTF-8"?>
<!DOCTYPE svg PUBLIC "-//W3C//DTD SVG 1.1//EN" "http://www.w3.org/Graphics/SVG/1.1/DTD/svg11.dtd">
<svg xmlns="http://www.w3.org/2000/svg" version="1.1" width="200px" height="152px" style="shape-rendering:geometricPrecision; text-rendering:geometricPrecision; image-rendering:optimizeQuality; fill-rule:evenodd; clip-rule:evenodd" xmlns:xlink="http://www.w3.org/1999/xlink">
<g><path style="opacity:0.978" fill="#2ed198" d="M -0.5,-0.5 C 29.5,-0.5 59.5,-0.5 89.5,-0.5C 86.3445,9.7889 83.3445,20.1222 80.5,30.5C 65.1667,30.5 49.8333,30.5 34.5,30.5C 34.5,40.5 34.5,50.5 34.5,60.5C 48.8333,60.5 63.1667,60.5 77.5,60.5C 77.5,70.8333 77.5,81.1667 77.5,91.5C 63.1667,91.5 48.8333,91.5 34.5,91.5C 34.5,111.5 34.5,131.5 34.5,151.5C 22.8333,151.5 11.1667,151.5 -0.5,151.5C -0.5,100.833 -0.5,50.1667 -0.5,-0.5 Z"/></g>
<g><path style="opacity:0.968" fill="#2ed198" d="M 106.5,-0.5 C 118.167,-0.5 129.833,-0.5 141.5,-0.5C 141.5,39.8333 141.5,80.1667 141.5,120.5C 151.167,120.5 160.833,120.5 170.5,120.5C 170.197,115.57 170.531,110.737 171.5,106C 180.737,101.547 190.07,97.3802 199.5,93.5C 199.5,112.833 199.5,132.167 199.5,151.5C 168.5,151.5 137.5,151.5 106.5,151.5C 106.5,100.833 106.5,50.1667 106.5,-0.5 Z"/></g>
</svg>
